<svg width="57" height="56" viewBox="0 0 57 56" fill="none" xmlns="http://www.w3.org/2000/svg">
<rect x="1" y="0.5" width="55" height="55" stroke="#CBD5E1"/>
<path d="M32.25 25.5L31.6337 25.3975C31.6189 25.487 31.6237 25.5787 31.6478 25.6661C31.6719 25.7536 31.7147 25.8347 31.7734 25.904C31.832 25.9732 31.905 26.0288 31.9873 26.067C32.0696 26.1052 32.1593 26.125 32.25 26.125V25.5ZM18.5 25.5V24.875C18.3342 24.875 18.1753 24.9408 18.0581 25.0581C17.9408 25.1753 17.875 25.3342 17.875 25.5H18.5ZM21 38.625H35.2V37.375H21V38.625ZM36.7 24.875H32.25V26.125H36.7V24.875ZM32.8663 25.6025L33.8737 19.5588L32.6412 19.3525L31.6337 25.3975L32.8663 25.6025ZM32.025 17.375H31.7588V18.625H32.025V17.375ZM28.1175 19.3238L24.9725 24.04L26.0125 24.7338L29.1562 20.0162L28.1163 19.3238H28.1175ZM23.4125 24.875H18.5V26.125H23.4125V24.875ZM17.875 25.5V35.5H19.125V25.5H17.875ZM38.265 36.1125L39.765 28.6125L38.54 28.3675L37.04 35.8675L38.265 36.1125ZM24.9725 24.04C24.8013 24.2968 24.5693 24.5074 24.2972 24.6531C24.0251 24.7988 23.7212 24.875 23.4125 24.875V26.125C23.9269 26.125 24.4334 25.998 24.8869 25.7553C25.3405 25.5126 25.7271 25.1617 26.0125 24.7338L24.9725 24.04ZM33.8737 19.5588C33.9186 19.2902 33.9044 19.015 33.8321 18.7525C33.7599 18.49 33.6313 18.2463 33.4554 18.0385C33.2794 17.8307 33.0603 17.6637 32.8133 17.5491C32.5663 17.4345 32.2973 17.3751 32.025 17.375V18.625C32.1158 18.6249 32.2056 18.6445 32.2881 18.6826C32.3705 18.7207 32.4437 18.7763 32.5025 18.8456C32.5612 18.9148 32.6042 18.996 32.6284 19.0836C32.6526 19.1711 32.6574 19.2629 32.6425 19.3525L33.8737 19.5588ZM36.7 26.125C36.9774 26.125 37.2514 26.1865 37.5021 26.3052C37.7528 26.4238 37.9741 26.5966 38.15 26.8111C38.3259 27.0256 38.452 27.2765 38.5192 27.5456C38.5865 27.8148 38.5944 28.0955 38.54 28.3675L39.765 28.6125C39.8556 28.1593 39.8433 27.6917 39.7314 27.2433C39.6194 26.7948 39.4095 26.3769 39.1165 26.0194C38.8236 25.6619 38.4551 25.3738 38.0374 25.1759C37.6198 24.9781 37.1634 24.8753 36.7013 24.875V26.125H36.7ZM35.2 38.625C35.9226 38.6251 36.6229 38.3749 37.1817 37.9168C37.7406 37.4587 38.1234 36.8211 38.265 36.1125L37.04 35.8675C36.955 36.2928 36.7252 36.6755 36.3897 36.9504C36.0542 37.2253 35.6337 37.3753 35.2 37.375V38.625ZM31.7575 17.375C31.037 17.3749 30.3277 17.5527 29.6925 17.8927C29.0572 18.2326 28.5158 18.7242 28.1163 19.3238L29.1562 20.0162C29.4416 19.5883 29.8283 19.2374 30.2818 18.9947C30.7354 18.752 31.2418 18.625 31.7562 18.625V17.375H31.7575ZM21 37.375C20.5027 37.375 20.0258 37.1775 19.6742 36.8258C19.3225 36.4742 19.125 35.9973 19.125 35.5H17.875C17.875 35.9104 17.9558 36.3167 18.1129 36.6959C18.2699 37.075 18.5001 37.4195 18.7903 37.7097C19.0805 37.9999 19.425 38.2301 19.8041 38.3871C20.1833 38.5442 20.5896 38.625 21 38.625V37.375Z" fill="#CBD5E1"/>
<path d="M23.5 25.5V38" stroke="#CBD5E1" stroke-width="1.66667"/>
</svg>
