<svg width="40" height="40" viewBox="0 0 40 40" fill="none" xmlns="http://www.w3.org/2000/svg">
<rect width="40" height="40" rx="4" fill="#FFEDD5"/>
<path d="M25.657 12.304C22.533 9.231 17.468 9.231 14.344 12.304C13.6023 13.0286 13.0129 13.8942 12.6105 14.8499C12.2081 15.8056 12.0008 16.8321 12.0008 17.869C12.0008 18.9059 12.2081 19.9324 12.6105 20.8881C13.0129 21.8438 13.6023 22.7094 14.344 23.434L20 28.999L25.657 23.434C26.3987 22.7094 26.9881 21.8438 27.3905 20.8881C27.7929 19.9324 28.0002 18.9059 28.0002 17.869C28.0002 16.8321 27.7929 15.8056 27.3905 14.8499C26.9881 13.8942 26.3987 13.0286 25.657 12.304ZM20 20.499C19.332 20.499 18.705 20.239 18.232 19.767C17.7638 19.2978 17.5008 18.6619 17.5008 17.999C17.5008 17.3361 17.7638 16.7003 18.232 16.231C18.704 15.759 19.332 15.499 20 15.499C20.668 15.499 21.296 15.759 21.768 16.231C22.2362 16.7003 22.4992 17.3361 22.4992 17.999C22.4992 18.6619 22.2362 19.2978 21.768 19.767C21.296 20.239 20.668 20.499 20 20.499Z" fill="#FF8200"/>
</svg>
