<svg width="40" height="40" viewBox="0 0 40 40" fill="none" xmlns="http://www.w3.org/2000/svg">
<rect width="40" height="40" rx="4" fill="#FFEDD5"/>
<path d="M15.75 9.5C15.75 9.30109 15.671 9.11032 15.5303 8.96967C15.3897 8.82902 15.1989 8.75 15 8.75C14.8011 8.75 14.6103 8.82902 14.4697 8.96967C14.329 9.11032 14.25 9.30109 14.25 9.5V11.08C12.81 11.195 11.866 11.477 11.172 12.172C10.477 12.866 10.195 13.811 10.079 15.25H29.921C29.805 13.81 29.523 12.866 28.828 12.172C28.134 11.477 27.189 11.195 25.75 11.079V9.5C25.75 9.30109 25.671 9.11032 25.5303 8.96967C25.3897 8.82902 25.1989 8.75 25 8.75C24.8011 8.75 24.6103 8.82902 24.4697 8.96967C24.329 9.11032 24.25 9.30109 24.25 9.5V11.013C23.585 11 22.839 11 22 11H18C17.161 11 16.415 11 15.75 11.013V9.5Z" fill="#FF8200"/>
<path fill-rule="evenodd" clip-rule="evenodd" d="M10 19C10 18.161 10 17.415 10.013 16.75H29.987C30 17.415 30 18.161 30 19V21C30 24.771 30 26.657 28.828 27.828C27.657 29 25.771 29 22 29H18C14.229 29 12.343 29 11.172 27.828C10 26.657 10 24.771 10 21V19ZM25 21C25.2652 21 25.5196 20.8946 25.7071 20.7071C25.8946 20.5196 26 20.2652 26 20C26 19.7348 25.8946 19.4804 25.7071 19.2929C25.5196 19.1054 25.2652 19 25 19C24.7348 19 24.4804 19.1054 24.2929 19.2929C24.1054 19.4804 24 19.7348 24 20C24 20.2652 24.1054 20.5196 24.2929 20.7071C24.4804 20.8946 24.7348 21 25 21ZM25 25C25.2652 25 25.5196 24.8946 25.7071 24.7071C25.8946 24.5196 26 24.2652 26 24C26 23.7348 25.8946 23.4804 25.7071 23.2929C25.5196 23.1054 25.2652 23 25 23C24.7348 23 24.4804 23.1054 24.2929 23.2929C24.1054 23.4804 24 23.7348 24 24C24 24.2652 24.1054 24.5196 24.2929 24.7071C24.4804 24.8946 24.7348 25 25 25ZM21 20C21 20.2652 20.8946 20.5196 20.7071 20.7071C20.5196 20.8946 20.2652 21 20 21C19.7348 21 19.4804 20.8946 19.2929 20.7071C19.1054 20.5196 19 20.2652 19 20C19 19.7348 19.1054 19.4804 19.2929 19.2929C19.4804 19.1054 19.7348 19 20 19C20.2652 19 20.5196 19.1054 20.7071 19.2929C20.8946 19.4804 21 19.7348 21 20ZM21 24C21 24.2652 20.8946 24.5196 20.7071 24.7071C20.5196 24.8946 20.2652 25 20 25C19.7348 25 19.4804 24.8946 19.2929 24.7071C19.1054 24.5196 19 24.2652 19 24C19 23.7348 19.1054 23.4804 19.2929 23.2929C19.4804 23.1054 19.7348 23 20 23C20.2652 23 20.5196 23.1054 20.7071 23.2929C20.8946 23.4804 21 23.7348 21 24ZM15 21C15.2652 21 15.5196 20.8946 15.7071 20.7071C15.8946 20.5196 16 20.2652 16 20C16 19.7348 15.8946 19.4804 15.7071 19.2929C15.5196 19.1054 15.2652 19 15 19C14.7348 19 14.4804 19.1054 14.2929 19.2929C14.1054 19.4804 14 19.7348 14 20C14 20.2652 14.1054 20.5196 14.2929 20.7071C14.4804 20.8946 14.7348 21 15 21ZM15 25C15.2652 25 15.5196 24.8946 15.7071 24.7071C15.8946 24.5196 16 24.2652 16 24C16 23.7348 15.8946 23.4804 15.7071 23.2929C15.5196 23.1054 15.2652 23 15 23C14.7348 23 14.4804 23.1054 14.2929 23.2929C14.1054 23.4804 14 23.7348 14 24C14 24.2652 14.1054 24.5196 14.2929 24.7071C14.4804 24.8946 14.7348 25 15 25Z" fill="#FF8200"/>
</svg>
