<svg width="1728" height="1117" viewBox="0 0 1728 1117" fill="none" xmlns="http://www.w3.org/2000/svg">
<g opacity="0.5">
<path fill-rule="evenodd" clip-rule="evenodd" d="M17.9314 1.23597C9.93171 -3.31272 0 2.46502 0 11.6675V207.496C0 211.812 2.31717 215.795 6.06856 217.928L281.505 374.543C289.505 379.092 299.437 373.314 299.437 364.111V168.282C299.437 163.967 297.12 159.984 293.368 157.851L17.9314 1.23597ZM266.998 166.823L4.9906 12.0177V212.858L266.998 362.785V166.823Z" fill="#18181B"/>
<path fill-rule="evenodd" clip-rule="evenodd" d="M303.644 1.23597C295.644 -3.31272 285.713 2.46502 285.713 11.6675V207.496C285.713 211.812 288.03 215.795 291.781 217.928L567.218 374.543C575.218 379.092 585.149 373.314 585.149 364.111V168.282C585.149 163.967 582.832 159.984 579.081 157.851L303.644 1.23597ZM552.71 166.823L290.703 12.0177V212.858L552.71 362.785V166.823Z" fill="#18181B"/>
<path fill-rule="evenodd" clip-rule="evenodd" d="M589.357 1.23597C581.357 -3.31272 571.425 2.46502 571.425 11.6675V207.496C571.425 211.812 573.742 215.795 577.494 217.928L852.931 374.543C860.93 379.092 870.862 373.314 870.862 364.111V168.282C870.862 163.967 868.545 159.984 864.794 157.851L589.357 1.23597ZM838.423 166.823L576.416 12.0177V212.858L838.423 362.785V166.823Z" fill="#18181B"/>
<path fill-rule="evenodd" clip-rule="evenodd" d="M875.069 1.23597C867.07 -3.31272 857.138 2.46502 857.138 11.6675V207.496C857.138 211.812 859.455 215.795 863.207 217.928L1138.64 374.543C1146.64 379.092 1156.57 373.314 1156.57 364.111V168.282C1156.57 163.967 1154.26 159.984 1150.51 157.851L875.069 1.23597ZM1124.14 166.823L862.129 12.0177V212.858L1124.14 362.785V166.823Z" fill="#18181B"/>
<path fill-rule="evenodd" clip-rule="evenodd" d="M1160.78 1.23597C1152.78 -3.31272 1142.85 2.46502 1142.85 11.6675V207.496C1142.85 211.812 1145.17 215.795 1148.92 217.928L1424.36 374.543C1432.36 379.092 1442.29 373.314 1442.29 364.111V168.282C1442.29 163.967 1439.97 159.984 1436.22 157.851L1160.78 1.23597ZM1409.85 166.823L1147.84 12.0177V212.858L1409.85 362.785V166.823Z" fill="#18181B"/>
<path fill-rule="evenodd" clip-rule="evenodd" d="M1446.49 1.23597C1438.49 -3.31272 1428.56 2.46502 1428.56 11.6675V207.496C1428.56 211.812 1430.88 215.795 1434.63 217.928L1710.07 374.543C1718.07 379.092 1728 373.314 1728 364.111V168.282C1728 163.967 1725.68 159.984 1721.93 157.851L1446.49 1.23597ZM1695.56 166.823L1433.55 12.0177V212.858L1695.56 362.785V166.823Z" fill="#18181B"/>
<path fill-rule="evenodd" clip-rule="evenodd" d="M17.9314 371.966C9.93171 367.418 0 373.195 0 382.398V578.227C0 582.542 2.31717 586.525 6.06856 588.658L281.505 745.273C289.505 749.822 299.437 744.044 299.437 734.841V539.013C299.437 534.697 297.12 530.714 293.368 528.581L17.9314 371.966ZM266.998 537.553L4.9906 382.748V583.589L266.998 733.515V537.553Z" fill="#18181B"/>
<path fill-rule="evenodd" clip-rule="evenodd" d="M303.644 371.966C295.644 367.418 285.713 373.195 285.713 382.398V578.227C285.713 582.542 288.03 586.525 291.781 588.658L567.218 745.273C575.218 749.822 585.149 744.044 585.149 734.841V539.013C585.149 534.697 582.832 530.714 579.081 528.581L303.644 371.966ZM552.71 537.553L290.703 382.748V583.589L552.71 733.515V537.553Z" fill="#18181B"/>
<path fill-rule="evenodd" clip-rule="evenodd" d="M589.357 371.966C581.357 367.418 571.425 373.195 571.425 382.398V578.227C571.425 582.542 573.742 586.525 577.494 588.658L852.931 745.273C860.93 749.822 870.862 744.044 870.862 734.841V539.013C870.862 534.697 868.545 530.714 864.794 528.581L589.357 371.966ZM838.423 537.553L576.416 382.748V583.589L838.423 733.515V537.553Z" fill="#18181B"/>
<path fill-rule="evenodd" clip-rule="evenodd" d="M875.069 371.966C867.07 367.418 857.138 373.195 857.138 382.398V578.227C857.138 582.542 859.455 586.525 863.207 588.658L1138.64 745.273C1146.64 749.822 1156.57 744.044 1156.57 734.841V539.013C1156.57 534.697 1154.26 530.714 1150.51 528.581L875.069 371.966ZM1124.14 537.553L862.129 382.748V583.589L1124.14 733.515V537.553Z" fill="#18181B"/>
<path fill-rule="evenodd" clip-rule="evenodd" d="M1160.78 371.966C1152.78 367.418 1142.85 373.195 1142.85 382.398V578.227C1142.85 582.542 1145.17 586.525 1148.92 588.658L1424.36 745.273C1432.36 749.822 1442.29 744.044 1442.29 734.841V539.013C1442.29 534.697 1439.97 530.714 1436.22 528.581L1160.78 371.966ZM1409.85 537.553L1147.84 382.748V583.589L1409.85 733.515V537.553Z" fill="#18181B"/>
<path fill-rule="evenodd" clip-rule="evenodd" d="M1446.49 371.966C1438.49 367.418 1428.56 373.195 1428.56 382.398V578.227C1428.56 582.542 1430.88 586.525 1434.63 588.658L1710.07 745.273C1718.07 749.822 1728 744.044 1728 734.841V539.013C1728 534.697 1725.68 530.714 1721.93 528.581L1446.49 371.966ZM1695.56 537.553L1433.55 382.748V583.589L1695.56 733.515V537.553Z" fill="#18181B"/>
<path fill-rule="evenodd" clip-rule="evenodd" d="M17.9314 742.774C9.93171 738.226 0 744.003 0 753.206V949.035C0 953.35 2.31717 957.333 6.06856 959.466L281.505 1116.08C289.505 1120.63 299.437 1114.85 299.437 1105.65V909.821C299.437 905.505 297.12 901.522 293.368 899.389L17.9314 742.774ZM266.998 908.361L4.9906 753.556V954.397L266.998 1104.32V908.361Z" fill="#18181B"/>
<path fill-rule="evenodd" clip-rule="evenodd" d="M303.644 742.774C295.644 738.226 285.713 744.003 285.713 753.206V949.035C285.713 953.35 288.03 957.333 291.781 959.466L567.218 1116.08C575.218 1120.63 585.149 1114.85 585.149 1105.65V909.821C585.149 905.505 582.832 901.522 579.081 899.389L303.644 742.774ZM552.71 908.361L290.703 753.556V954.397L552.71 1104.32V908.361Z" fill="#18181B"/>
<path fill-rule="evenodd" clip-rule="evenodd" d="M589.357 742.774C581.357 738.226 571.425 744.003 571.425 753.206V949.035C571.425 953.35 573.742 957.333 577.494 959.466L852.931 1116.08C860.93 1120.63 870.862 1114.85 870.862 1105.65V909.821C870.862 905.505 868.545 901.522 864.794 899.389L589.357 742.774ZM838.423 908.361L576.416 753.556V954.397L838.423 1104.32V908.361Z" fill="#18181B"/>
<path fill-rule="evenodd" clip-rule="evenodd" d="M875.069 742.774C867.07 738.226 857.138 744.003 857.138 753.206V949.035C857.138 953.35 859.455 957.333 863.207 959.466L1138.64 1116.08C1146.64 1120.63 1156.57 1114.85 1156.57 1105.65V909.821C1156.57 905.505 1154.26 901.522 1150.51 899.389L875.069 742.774ZM1124.14 908.361L862.129 753.556V954.397L1124.14 1104.32V908.361Z" fill="#18181B"/>
<path fill-rule="evenodd" clip-rule="evenodd" d="M1160.78 742.774C1152.78 738.226 1142.85 744.003 1142.85 753.206V949.035C1142.85 953.35 1145.17 957.333 1148.92 959.466L1424.36 1116.08C1432.36 1120.63 1442.29 1114.85 1442.29 1105.65V909.821C1442.29 905.505 1439.97 901.522 1436.22 899.389L1160.78 742.774ZM1409.85 908.361L1147.84 753.556V954.397L1409.85 1104.32V908.361Z" fill="#18181B"/>
<path fill-rule="evenodd" clip-rule="evenodd" d="M1446.49 742.774C1438.49 738.226 1428.56 744.003 1428.56 753.206V949.035C1428.56 953.35 1430.88 957.333 1434.63 959.466L1710.07 1116.08C1718.07 1120.63 1728 1114.85 1728 1105.65V909.821C1728 905.505 1725.68 901.522 1721.93 899.389L1446.49 742.774ZM1695.56 908.361L1433.55 753.556V954.397L1695.56 1104.32V908.361Z" fill="#18181B"/>
</g>
</svg>
