<svg width="101" height="100" viewBox="0 0 101 100" fill="none" xmlns="http://www.w3.org/2000/svg">
<path d="M50.5 0C60.5229 1.19522e-07 70.3144 3.01228 78.6042 8.64598L71.5781 18.9845C65.3608 14.7592 58.0172 12.5 50.5 12.5V0Z" fill="#FED7AA"/>
<path d="M79.8941 9.5527C88.1792 15.5737 94.4155 23.9937 97.7596 33.6742C101.104 43.3546 101.394 53.8285 98.5923 63.6796L86.5692 60.2597C88.6708 52.8714 88.4528 45.016 85.9447 37.7556C83.4366 30.4953 78.7594 24.1803 72.5456 19.6645L79.8941 9.5527Z" fill="#FED7AA"/>
<path d="M97.9794 34.325C101.122 43.8426 101.331 54.0849 98.5799 63.7229L86.56 60.2922C88.6231 53.0637 88.4662 45.382 86.1096 38.2438L97.9794 34.325Z" fill="#FED7AA"/>
<path d="M98.1428 65.1712C95.0573 74.8606 89.0908 83.3789 81.0392 89.5899C72.9876 95.8008 63.2336 99.4091 53.0783 99.9335L52.4337 87.4501C60.0502 87.0568 67.3657 84.3506 73.4044 79.6924C79.4431 75.0342 83.918 68.6454 86.2321 61.3784L98.1428 65.1712Z" fill="#FED7AA"/>
<path d="M80.1372 90.2696C72.0648 96.2106 62.3933 99.5884 52.3775 99.9647L51.9081 87.4736C59.42 87.1913 66.6736 84.6579 72.7279 80.2022L80.1372 90.2696Z" fill="#FED7AA"/>
<path d="M50.5 100C40.2895 100 30.3238 96.874 21.9426 91.0424C13.5614 85.2107 7.16645 76.9529 3.61749 67.379L15.3381 63.0343C17.9998 70.2146 22.796 76.408 29.082 80.7818C35.3679 85.1555 42.8422 87.5 50.5 87.5L50.5 100Z" fill="#FED7AA"/>
<path d="M21.3729 90.64C13.2263 84.8013 7.0225 76.6489 3.56646 67.2407L15.2998 62.9306C17.8919 69.9867 22.5447 76.101 28.6547 80.48L21.3729 90.64Z" fill="#FED7AA"/>
<path d="M3.05133 65.7678C-0.202751 55.9756 -0.347489 45.4164 2.63697 35.5387C5.62142 25.6609 11.5889 16.9485 19.7208 10.5964L27.4156 20.4473C21.3167 25.2114 16.8411 31.7457 14.6027 39.154C12.3644 46.5623 12.4729 54.4817 14.9135 61.8258L3.05133 65.7678Z" fill="#FED7AA"/>
<path d="M2.81954 34.9476C5.83691 25.3897 11.6572 16.9592 19.5251 10.7501L27.2688 20.5626C21.3679 25.2194 17.0027 31.5423 14.7397 38.7107L2.81954 34.9476Z" fill="#FED7AA"/>
<path d="M20.8321 9.75304C29.1929 3.58994 39.2655 0.183618 49.6508 0.00721162C60.0361 -0.169194 70.2186 2.89308 78.7839 8.76867L71.7129 19.0765C65.289 14.6698 57.6521 12.3731 49.8631 12.5054C42.0741 12.6377 34.5197 15.1925 28.2491 19.8148L20.8321 9.75304Z" fill="#FED7AA"/>
<path d="M42.3737 57.7027C41.1521 57.6979 40.1009 57.3973 39.2202 56.8007C38.3443 56.2041 37.6696 55.34 37.1961 54.2083C36.7273 53.0767 36.4953 51.7154 36.5001 50.1245C36.5001 48.5384 36.7344 47.1866 37.2032 46.0691C37.6767 44.9517 38.3514 44.1018 39.2273 43.5194C40.108 42.9323 41.1568 42.6387 42.3737 42.6387C43.5905 42.6387 44.6369 42.9323 45.5129 43.5194C46.3935 44.1065 47.0706 44.9588 47.5441 46.0762C48.0176 47.1889 48.252 48.5384 48.2472 50.1245C48.2472 51.7202 48.0105 53.0838 47.537 54.2154C47.0683 55.3471 46.3959 56.2112 45.52 56.8078C44.644 57.4044 43.5952 57.7027 42.3737 57.7027ZM42.3737 55.1529C43.207 55.1529 43.8722 54.7339 44.3694 53.8958C44.8665 53.0578 45.1128 51.8007 45.108 50.1245C45.108 49.0213 44.9944 48.1028 44.7671 47.3689C44.5446 46.635 44.2273 46.0833 43.8154 45.714C43.4082 45.3447 42.9276 45.16 42.3737 45.16C41.5451 45.16 40.8822 45.5743 40.385 46.4029C39.8879 47.2315 39.6369 48.4721 39.6322 50.1245C39.6322 51.242 39.7434 52.1747 39.966 52.9228C40.1933 53.6662 40.5129 54.2249 40.9248 54.599C41.3367 54.9683 41.8197 55.1529 42.3737 55.1529Z" fill="black"/>
<path d="M58.4017 54.6558V53.8887C58.4017 53.3064 58.5248 52.7713 58.771 52.2836C59.022 51.7912 59.3842 51.3982 59.8577 51.1047C60.3359 50.8064 60.9183 50.6572 61.6048 50.6572C62.3009 50.6572 62.8856 50.804 63.3591 51.0975C63.8373 51.3911 64.1972 51.7841 64.4386 52.2765C64.6848 52.7642 64.808 53.3016 64.808 53.8887V54.6558C64.808 55.2382 64.6848 55.7756 64.4386 56.268C64.1924 56.7557 63.8302 57.1463 63.352 57.4399C62.8738 57.7382 62.2914 57.8873 61.6048 57.8873C60.9088 57.8873 60.3241 57.7382 59.8506 57.4399C59.3771 57.1463 59.0172 56.7557 58.771 56.268C58.5248 55.7756 58.4017 55.2382 58.4017 54.6558ZM60.4685 53.8887V54.6558C60.4685 54.992 60.549 55.3092 60.7099 55.6075C60.8757 55.9058 61.174 56.0549 61.6048 56.0549C62.0357 56.0549 62.3293 55.9082 62.4855 55.6146C62.6465 55.321 62.727 55.0014 62.727 54.6558V53.8887C62.727 53.5431 62.6512 53.2211 62.4997 52.9228C62.3482 52.6245 62.0499 52.4754 61.6048 52.4754C61.1787 52.4754 60.8828 52.6245 60.717 52.9228C60.5513 53.2211 60.4685 53.5431 60.4685 53.8887ZM50.9372 46.3319V45.5649C50.9372 44.9778 51.0627 44.4404 51.3136 43.9527C51.5646 43.4602 51.9268 43.0672 52.4003 42.7737C52.8785 42.4801 53.4562 42.3333 54.1332 42.3333C54.834 42.3333 55.4211 42.4801 55.8946 42.7737C56.3681 43.0672 56.7279 43.4602 56.9741 43.9527C57.2204 44.4404 57.3435 44.9778 57.3435 45.5649V46.3319C57.3435 46.919 57.218 47.4564 56.967 47.9441C56.7208 48.4318 56.3586 48.8225 55.8804 49.116C55.4069 49.4048 54.8245 49.5493 54.1332 49.5493C53.4419 49.5493 52.8572 49.4025 52.379 49.1089C51.9055 48.8106 51.5456 48.42 51.2994 47.937C51.058 47.4493 50.9372 46.9143 50.9372 46.3319ZM53.0182 45.5649V46.3319C53.0182 46.6776 53.0987 46.9972 53.2597 47.2907C53.4254 47.5843 53.7166 47.7311 54.1332 47.7311C54.5688 47.7311 54.8648 47.5843 55.021 47.2907C55.182 46.9972 55.2625 46.6776 55.2625 46.3319V45.5649C55.2625 45.2192 55.1867 44.8973 55.0352 44.599C54.8837 44.3007 54.583 44.1515 54.1332 44.1515C53.7118 44.1515 53.4206 44.303 53.2597 44.6061C53.0987 44.9091 53.0182 45.2287 53.0182 45.5649ZM51.8747 57.3831L61.8747 42.8376H63.7355L53.7355 57.3831H51.8747Z" fill="black"/>
</svg>
