<svg width="27" height="27" viewBox="0 0 27 27" fill="none" xmlns="http://www.w3.org/2000/svg">
<path d="M13.96 2.49249C7.98003 2.49249 3.1267 7.34583 3.1267 13.3258C3.1267 19.3058 7.98003 24.1592 13.96 24.1592C19.94 24.1592 24.7934 19.3058 24.7934 13.3258C24.7934 7.34583 19.94 2.49249 13.96 2.49249ZM13.96 21.9925C9.1717 21.9925 5.29337 18.1142 5.29337 13.3258C5.29337 8.53749 9.1717 4.65916 13.96 4.65916C18.7484 4.65916 22.6267 8.53749 22.6267 13.3258C22.6267 18.1142 18.7484 21.9925 13.96 21.9925Z" fill="#FF8200"/>
<path d="M8.54337 14.9508C9.44083 14.9508 10.1684 14.2233 10.1684 13.3258C10.1684 12.4283 9.44083 11.7008 8.54337 11.7008C7.6459 11.7008 6.91837 12.4283 6.91837 13.3258C6.91837 14.2233 7.6459 14.9508 8.54337 14.9508Z" fill="#FF8200"/>
<path d="M13.96 14.9508C14.8575 14.9508 15.585 14.2233 15.585 13.3258C15.585 12.4283 14.8575 11.7008 13.96 11.7008C13.0626 11.7008 12.335 12.4283 12.335 13.3258C12.335 14.2233 13.0626 14.9508 13.96 14.9508Z" fill="#FF8200"/>
<path d="M19.3767 14.9508C20.2742 14.9508 21.0017 14.2233 21.0017 13.3258C21.0017 12.4283 20.2742 11.7008 19.3767 11.7008C18.4792 11.7008 17.7517 12.4283 17.7517 13.3258C17.7517 14.2233 18.4792 14.9508 19.3767 14.9508Z" fill="#FF8200"/>
</svg>
