<svg width="32" height="31" viewBox="0 0 32 31" fill="none" xmlns="http://www.w3.org/2000/svg">
<path d="M24 30.5H9V11L19.5 0.5L21.375 2.375C21.55 2.55 21.694 2.7875 21.807 3.0875C21.92 3.3875 21.976 3.675 21.975 3.95V4.475L20.325 11H28.5C29.3 11 30 11.3 30.6 11.9C31.2 12.5 31.5 13.2 31.5 14V17C31.5 17.175 31.4815 17.3625 31.4445 17.5625C31.4075 17.7625 31.351 17.95 31.275 18.125L26.775 28.7C26.55 29.2 26.175 29.625 25.65 29.975C25.125 30.325 24.575 30.5 24 30.5ZM6 11V30.5H0V11H6Z" fill="#59CBE8"/>
</svg>
