<svg width="293" height="40" viewBox="0 0 293 40" fill="none" xmlns="http://www.w3.org/2000/svg">
<g clip-path="url(#clip0_1300_355)">
<rect x="0.5" width="40" height="40" rx="8" fill="#FFF7ED"/>
<path d="M23.154 23.957V25H17.722V23.957H19.85V17.37C19.85 17.16 19.857 16.943 19.871 16.719L18.163 18.168C18.0977 18.2193 18.0323 18.252 17.967 18.266C17.9017 18.28 17.8387 18.2823 17.778 18.273C17.722 18.2637 17.6707 18.245 17.624 18.217C17.582 18.1843 17.547 18.1517 17.519 18.119L17.092 17.524L20.102 14.927H21.215V23.957H23.154Z" fill="#FF8200"/>
</g>
<g clip-path="url(#clip1_1300_355)">
<path d="M64.902 23.705C65.0513 23.705 65.168 23.7493 65.252 23.838C65.336 23.922 65.378 24.034 65.378 24.174V25H58.63V24.531C58.63 24.4377 58.6487 24.3397 58.686 24.237C58.7233 24.1297 58.7863 24.034 58.875 23.95L62.053 20.765C62.319 20.499 62.5593 20.2423 62.774 19.995C62.9887 19.7477 63.1707 19.5027 63.32 19.26C63.4693 19.0127 63.5837 18.7607 63.663 18.504C63.747 18.2473 63.789 17.9767 63.789 17.692C63.789 17.412 63.7447 17.167 63.656 16.957C63.5673 16.7423 63.446 16.565 63.292 16.425C63.138 16.285 62.956 16.18 62.746 16.11C62.536 16.04 62.3097 16.005 62.067 16.005C61.8243 16.005 61.6003 16.04 61.395 16.11C61.1943 16.18 61.0147 16.278 60.856 16.404C60.6973 16.53 60.5643 16.6793 60.457 16.852C60.3497 17.0247 60.2727 17.2113 60.226 17.412C60.1607 17.5893 60.0767 17.7083 59.974 17.769C59.876 17.8297 59.7313 17.8437 59.54 17.811L58.826 17.685C58.8913 17.2183 59.0197 16.8077 59.211 16.453C59.4023 16.0983 59.6427 15.802 59.932 15.564C60.2213 15.3213 60.5527 15.1393 60.926 15.018C61.304 14.8967 61.71 14.836 62.144 14.836C62.5827 14.836 62.9863 14.9013 63.355 15.032C63.7283 15.158 64.0503 15.3423 64.321 15.585C64.5917 15.8277 64.804 16.124 64.958 16.474C65.112 16.8193 65.189 17.2113 65.189 17.65C65.189 18.0233 65.133 18.371 65.021 18.693C64.9137 19.0103 64.7643 19.3137 64.573 19.603C64.3863 19.8923 64.167 20.1747 63.915 20.45C63.6677 20.7207 63.404 20.996 63.124 21.276L60.576 23.88C60.772 23.8287 60.968 23.7867 61.164 23.754C61.3647 23.7213 61.5537 23.705 61.731 23.705H64.902Z" fill="#667085"/>
</g>
<g clip-path="url(#clip2_1300_355)">
<path d="M100.868 17.685C100.938 17.2183 101.069 16.8077 101.26 16.453C101.451 16.0983 101.692 15.802 101.981 15.564C102.27 15.3213 102.602 15.1393 102.975 15.018C103.353 14.8967 103.759 14.836 104.193 14.836C104.627 14.836 105.026 14.899 105.39 15.025C105.754 15.1463 106.064 15.3213 106.321 15.55C106.582 15.774 106.785 16.0447 106.93 16.362C107.075 16.6793 107.147 17.0293 107.147 17.412C107.147 17.734 107.107 18.0187 107.028 18.266C106.949 18.5133 106.834 18.7303 106.685 18.917C106.54 19.1037 106.363 19.2623 106.153 19.393C105.943 19.519 105.707 19.624 105.446 19.708C106.085 19.8853 106.566 20.1747 106.888 20.576C107.21 20.9727 107.371 21.4767 107.371 22.088C107.371 22.5593 107.282 22.984 107.105 23.362C106.928 23.7353 106.685 24.0527 106.377 24.314C106.069 24.5707 105.71 24.769 105.299 24.909C104.893 25.0443 104.459 25.112 103.997 25.112C103.47 25.112 103.017 25.049 102.639 24.923C102.261 24.7923 101.939 24.6127 101.673 24.384C101.407 24.1507 101.185 23.873 101.008 23.551C100.835 23.2243 100.688 22.8673 100.567 22.48L101.162 22.228C101.316 22.1627 101.465 22.144 101.61 22.172C101.755 22.2 101.86 22.2817 101.925 22.417C101.995 22.557 102.074 22.7157 102.163 22.893C102.256 23.0657 102.38 23.2313 102.534 23.39C102.688 23.544 102.879 23.6747 103.108 23.782C103.341 23.8893 103.633 23.943 103.983 23.943C104.319 23.943 104.613 23.8893 104.865 23.782C105.117 23.67 105.327 23.5277 105.495 23.355C105.663 23.1777 105.789 22.9817 105.873 22.767C105.957 22.5523 105.999 22.34 105.999 22.13C105.999 21.8687 105.966 21.6283 105.901 21.409C105.836 21.1897 105.71 21.003 105.523 20.849C105.341 20.6903 105.087 20.5667 104.76 20.478C104.433 20.3893 104.009 20.345 103.486 20.345V19.351C103.915 19.3463 104.277 19.302 104.571 19.218C104.87 19.134 105.11 19.0173 105.292 18.868C105.474 18.7187 105.605 18.5413 105.684 18.336C105.768 18.1307 105.81 17.902 105.81 17.65C105.81 17.3747 105.768 17.1343 105.684 16.929C105.6 16.7237 105.481 16.5533 105.327 16.418C105.178 16.278 104.998 16.1753 104.788 16.11C104.583 16.04 104.359 16.005 104.116 16.005C103.873 16.005 103.649 16.04 103.444 16.11C103.239 16.18 103.057 16.278 102.898 16.404C102.739 16.53 102.606 16.6793 102.499 16.852C102.392 17.0247 102.315 17.2113 102.268 17.412C102.203 17.5893 102.119 17.7083 102.016 17.769C101.918 17.8297 101.776 17.8437 101.589 17.811L100.868 17.685Z" fill="#667085"/>
</g>
<g clip-path="url(#clip3_1300_355)">
<path d="M142.479 25.0945C142.207 25.0945 141.973 24.9983 141.778 24.8061C141.582 24.6106 141.484 24.3752 141.484 24.1001C141.484 23.8284 141.582 23.5964 141.778 23.4041C141.973 23.2086 142.207 23.1108 142.479 23.1108C142.75 23.1108 142.984 23.2086 143.18 23.4041C143.375 23.5964 143.473 23.8284 143.473 24.1001C143.473 24.2824 143.427 24.4498 143.334 24.6023C143.244 24.7514 143.125 24.8707 142.976 24.9602C142.827 25.0497 142.661 25.0945 142.479 25.0945ZM146.444 25.0945C146.172 25.0945 145.938 24.9983 145.743 24.8061C145.547 24.6106 145.449 24.3752 145.449 24.1001C145.449 23.8284 145.547 23.5964 145.743 23.4041C145.938 23.2086 146.172 23.1108 146.444 23.1108C146.715 23.1108 146.949 23.2086 147.145 23.4041C147.34 23.5964 147.438 23.8284 147.438 24.1001C147.438 24.2824 147.391 24.4498 147.299 24.6023C147.209 24.7514 147.09 24.8707 146.941 24.9602C146.792 25.0497 146.626 25.0945 146.444 25.0945ZM150.408 25.0945C150.137 25.0945 149.903 24.9983 149.707 24.8061C149.512 24.6106 149.414 24.3752 149.414 24.1001C149.414 23.8284 149.512 23.5964 149.707 23.4041C149.903 23.2086 150.137 23.1108 150.408 23.1108C150.68 23.1108 150.914 23.2086 151.109 23.4041C151.305 23.5964 151.403 23.8284 151.403 24.1001C151.403 24.2824 151.356 24.4498 151.263 24.6023C151.174 24.7514 151.055 24.8707 150.906 24.9602C150.756 25.0497 150.591 25.0945 150.408 25.0945Z" fill="#667085"/>
</g>
<g clip-path="url(#clip4_1300_355)">
<path d="M188.06 24.027C188.377 24.027 188.66 23.9827 188.907 23.894C189.154 23.8053 189.364 23.6817 189.537 23.523C189.71 23.3597 189.84 23.166 189.929 22.942C190.018 22.718 190.062 22.473 190.062 22.207C190.062 21.8803 190.008 21.6003 189.901 21.367C189.794 21.129 189.649 20.9353 189.467 20.786C189.285 20.632 189.073 20.52 188.83 20.45C188.587 20.3753 188.331 20.338 188.06 20.338C187.785 20.338 187.526 20.3753 187.283 20.45C187.04 20.52 186.828 20.632 186.646 20.786C186.464 20.9353 186.319 21.129 186.212 21.367C186.109 21.6003 186.058 21.8803 186.058 22.207C186.058 22.473 186.102 22.718 186.191 22.942C186.28 23.166 186.41 23.3597 186.583 23.523C186.756 23.6817 186.966 23.8053 187.213 23.894C187.46 23.9827 187.743 24.027 188.06 24.027ZM188.06 15.886C187.771 15.886 187.516 15.9303 187.297 16.019C187.082 16.103 186.903 16.2197 186.758 16.369C186.613 16.5183 186.504 16.691 186.429 16.887C186.359 17.083 186.324 17.293 186.324 17.517C186.324 17.7363 186.354 17.951 186.415 18.161C186.48 18.3663 186.581 18.5507 186.716 18.714C186.856 18.8727 187.036 19.001 187.255 19.099C187.474 19.197 187.743 19.246 188.06 19.246C188.373 19.246 188.639 19.197 188.858 19.099C189.082 19.001 189.262 18.8727 189.397 18.714C189.537 18.5507 189.637 18.3663 189.698 18.161C189.763 17.951 189.796 17.7363 189.796 17.517C189.796 17.293 189.759 17.083 189.684 16.887C189.614 16.691 189.507 16.5183 189.362 16.369C189.217 16.2197 189.035 16.103 188.816 16.019C188.601 15.9303 188.349 15.886 188.06 15.886ZM189.565 19.757C190.19 19.9437 190.664 20.2447 190.986 20.66C191.313 21.0753 191.476 21.6003 191.476 22.235C191.476 22.6737 191.392 23.0703 191.224 23.425C191.061 23.7797 190.827 24.083 190.524 24.335C190.225 24.5823 189.866 24.7737 189.446 24.909C189.026 25.0443 188.564 25.112 188.06 25.112C187.556 25.112 187.094 25.0443 186.674 24.909C186.254 24.7737 185.892 24.5823 185.589 24.335C185.29 24.083 185.057 23.7797 184.889 23.425C184.726 23.0703 184.644 22.6737 184.644 22.235C184.644 21.6003 184.805 21.0753 185.127 20.66C185.454 20.2447 185.93 19.9437 186.555 19.757C186.037 19.561 185.647 19.2693 185.386 18.882C185.125 18.49 184.994 18.0257 184.994 17.489C184.994 17.1157 185.066 16.768 185.211 16.446C185.36 16.1193 185.568 15.837 185.834 15.599C186.105 15.361 186.429 15.1743 186.807 15.039C187.185 14.9037 187.603 14.836 188.06 14.836C188.517 14.836 188.935 14.9037 189.313 15.039C189.691 15.1743 190.013 15.361 190.279 15.599C190.55 15.837 190.757 16.1193 190.902 16.446C191.051 16.768 191.126 17.1157 191.126 17.489C191.126 18.0257 190.995 18.49 190.734 18.882C190.473 19.2693 190.083 19.561 189.565 19.757Z" fill="#667085"/>
</g>
<g clip-path="url(#clip5_1300_355)">
<path d="M228.065 17.916C228.065 18.5367 228.233 19.015 228.569 19.351C228.905 19.687 229.372 19.855 229.969 19.855C230.291 19.855 230.576 19.8037 230.823 19.701C231.07 19.5937 231.278 19.4537 231.446 19.281C231.619 19.1037 231.749 18.9007 231.838 18.672C231.927 18.4387 231.971 18.196 231.971 17.944C231.971 17.6407 231.922 17.3677 231.824 17.125C231.731 16.8777 231.598 16.67 231.425 16.502C231.252 16.3293 231.047 16.1987 230.809 16.11C230.576 16.0167 230.317 15.97 230.032 15.97C229.738 15.97 229.47 16.019 229.227 16.117C228.984 16.2103 228.777 16.3433 228.604 16.516C228.431 16.6887 228.298 16.894 228.205 17.132C228.112 17.37 228.065 17.6313 228.065 17.916ZM230.823 21.024C231.005 20.786 231.175 20.5527 231.334 20.324C231.082 20.5153 230.8 20.66 230.487 20.758C230.179 20.856 229.85 20.905 229.5 20.905C229.131 20.905 228.777 20.842 228.436 20.716C228.1 20.59 227.801 20.4057 227.54 20.163C227.283 19.9157 227.078 19.6123 226.924 19.253C226.77 18.8937 226.693 18.4807 226.693 18.014C226.693 17.5753 226.775 17.1623 226.938 16.775C227.101 16.3877 227.33 16.0517 227.624 15.767C227.923 15.4777 228.277 15.2513 228.688 15.088C229.103 14.92 229.558 14.836 230.053 14.836C230.543 14.836 230.986 14.9153 231.383 15.074C231.784 15.2327 232.125 15.4567 232.405 15.746C232.685 16.0307 232.902 16.3737 233.056 16.775C233.21 17.1763 233.287 17.6173 233.287 18.098C233.287 18.392 233.259 18.672 233.203 18.938C233.152 19.204 233.075 19.463 232.972 19.715C232.874 19.967 232.753 20.2167 232.608 20.464C232.468 20.7067 232.307 20.9563 232.125 21.213L229.71 24.678C229.645 24.7713 229.549 24.8483 229.423 24.909C229.302 24.9697 229.162 25 229.003 25H227.75L230.823 21.024Z" fill="#667085"/>
</g>
<g clip-path="url(#clip6_1300_355)">
<path d="M271.154 23.957V25H265.722V23.957H267.85V17.37C267.85 17.16 267.857 16.943 267.871 16.719L266.163 18.168C266.098 18.2193 266.032 18.252 265.967 18.266C265.902 18.28 265.839 18.2823 265.778 18.273C265.722 18.2637 265.671 18.245 265.624 18.217C265.582 18.1843 265.547 18.1517 265.519 18.119L265.092 17.524L268.102 14.927H269.215V23.957H271.154ZM279.835 19.974C279.835 20.8513 279.739 21.612 279.548 22.256C279.361 22.9 279.102 23.4343 278.771 23.859C278.444 24.279 278.057 24.5917 277.609 24.797C277.166 25.0023 276.687 25.105 276.174 25.105C275.661 25.105 275.18 25.0023 274.732 24.797C274.289 24.5917 273.904 24.279 273.577 23.859C273.25 23.4343 272.994 22.9 272.807 22.256C272.62 21.612 272.527 20.8513 272.527 19.974C272.527 19.0967 272.62 18.336 272.807 17.692C272.994 17.0433 273.25 16.509 273.577 16.089C273.904 15.6643 274.289 15.3493 274.732 15.144C275.18 14.9387 275.661 14.836 276.174 14.836C276.687 14.836 277.166 14.9387 277.609 15.144C278.057 15.3493 278.444 15.6643 278.771 16.089C279.102 16.509 279.361 17.0433 279.548 17.692C279.739 18.336 279.835 19.0967 279.835 19.974ZM278.421 19.974C278.421 19.218 278.358 18.5857 278.232 18.077C278.111 17.5683 277.945 17.16 277.735 16.852C277.53 16.5393 277.292 16.3177 277.021 16.187C276.75 16.0563 276.468 15.991 276.174 15.991C275.88 15.991 275.598 16.0563 275.327 16.187C275.056 16.3177 274.816 16.5393 274.606 16.852C274.401 17.16 274.237 17.5683 274.116 18.077C273.995 18.5857 273.934 19.218 273.934 19.974C273.934 20.73 273.995 21.3623 274.116 21.871C274.237 22.3797 274.401 22.788 274.606 23.096C274.816 23.404 275.056 23.6233 275.327 23.754C275.598 23.8847 275.88 23.95 276.174 23.95C276.468 23.95 276.75 23.8847 277.021 23.754C277.292 23.6233 277.53 23.404 277.735 23.096C277.945 22.788 278.111 22.3797 278.232 21.871C278.358 21.3623 278.421 20.73 278.421 19.974Z" fill="#667085"/>
</g>
<defs>
<clipPath id="clip0_1300_355">
<rect x="0.5" width="40" height="40" rx="8" fill="white"/>
</clipPath>
<clipPath id="clip1_1300_355">
<rect x="42.5" width="40" height="40" rx="8" fill="white"/>
</clipPath>
<clipPath id="clip2_1300_355">
<rect x="84.5" width="40" height="40" rx="8" fill="white"/>
</clipPath>
<clipPath id="clip3_1300_355">
<rect x="126.5" width="40" height="40" rx="8" fill="white"/>
</clipPath>
<clipPath id="clip4_1300_355">
<rect x="168.5" width="40" height="40" rx="8" fill="white"/>
</clipPath>
<clipPath id="clip5_1300_355">
<rect x="210.5" width="40" height="40" rx="8" fill="white"/>
</clipPath>
<clipPath id="clip6_1300_355">
<rect x="252.5" width="40" height="40" rx="8" fill="white"/>
</clipPath>
</defs>
</svg>
