<svg width="28" height="33" viewBox="0 0 28 33" fill="none" xmlns="http://www.w3.org/2000/svg">
<path d="M11.6786 19.75C11.6667 19.7857 11.5923 19.7827 11.4554 19.7411C11.3185 19.6994 11.131 19.631 10.8929 19.5357L10.5357 19.375C10.0119 19.1369 9.49405 18.8452 8.98214 18.5C8.89881 18.4405 8.65476 18.253 8.25 17.9375C7.84524 17.622 7.61905 17.4524 7.57143 17.4286C6.77381 18.6548 5.97619 19.7321 5.17857 20.6607C4.21429 21.7917 3.58929 22.4464 3.30357 22.625C3.25595 22.6488 3.13988 22.6726 2.95536 22.6964C2.77083 22.7202 2.66071 22.7202 2.625 22.6964C2.69643 22.6488 3.18452 22.1012 4.08929 21.0536C4.33929 20.7679 4.84821 20.0833 5.61607 19C6.38393 17.9167 6.85119 17.2143 7.01786 16.8929C7.22024 16.5357 7.52381 15.9494 7.92857 15.1339C8.33333 14.3185 8.54762 13.8571 8.57143 13.75C8.47619 13.7381 7.82143 13.9345 6.60714 14.3393C6.51191 14.3631 6.34821 14.4077 6.11607 14.4732C5.88393 14.5387 5.67857 14.5952 5.5 14.6429C5.32143 14.6905 5.22024 14.7202 5.19643 14.7321C5.17262 14.756 5.16071 14.8185 5.16071 14.9196C5.16071 15.0208 5.15476 15.0774 5.14286 15.0893C5.08333 15.2083 4.89881 15.2976 4.58929 15.3571C4.31548 15.4405 4.03571 15.4405 3.75 15.3571C3.53571 15.3095 3.36905 15.1845 3.25 14.9821C3.20238 14.9107 3.17262 14.7738 3.16071 14.5714C3.23214 14.5476 3.37798 14.5179 3.59821 14.4821C3.81845 14.4464 3.99405 14.4107 4.125 14.375C4.81548 14.1845 5.44048 13.994 6 13.8036C7.19048 13.3869 7.79762 13.1786 7.82143 13.1786C7.94048 13.1548 8.19643 13.0387 8.58929 12.8304C8.98214 12.622 9.24405 12.494 9.375 12.4464C9.48214 12.4107 9.61012 12.3631 9.75893 12.3036C9.90774 12.244 9.99405 12.2113 10.0179 12.2054C10.0417 12.1994 10.0774 12.2024 10.125 12.2143C10.1488 12.3571 10.1429 12.5536 10.1071 12.8036C10.1071 12.8274 10.0327 12.9881 9.88393 13.2857C9.73512 13.5833 9.57738 13.9018 9.41072 14.2411C9.24405 14.5804 9.14286 14.7798 9.10714 14.8393C8.80952 15.4345 8.35119 16.2143 7.73214 17.1786L8.875 17.6786C9.01786 17.75 9.46131 17.9405 10.2054 18.25C10.9494 18.5595 11.3512 18.7262 11.4107 18.75C11.4583 18.7619 11.5208 18.9137 11.5982 19.2054C11.6756 19.497 11.7024 19.6786 11.6786 19.75ZM8.01786 11.0714C8.05357 11.25 8.02976 11.4167 7.94643 11.5714C7.80357 11.8452 7.50595 12.0714 7.05357 12.25C6.69643 12.3929 6.33929 12.4643 5.98214 12.4643C5.67262 12.4286 5.38095 12.2738 5.10714 12C4.94048 11.8214 4.83333 11.5774 4.78571 11.2679L4.80357 11.2143C4.83929 11.25 4.95536 11.2798 5.15179 11.3036C5.34821 11.3274 5.50595 11.3274 5.625 11.3036C5.74405 11.2798 6.08929 11.1845 6.66071 11.0179C7.08929 10.875 7.41667 10.7917 7.64286 10.7679C7.84524 10.7679 7.97024 10.869 8.01786 11.0714ZM20.4821 13.375L21.6071 17.4286L19.125 16.6786L20.4821 13.375ZM0.696429 27.6607L13.0893 23.5179V5.08929L0.696429 9.25V27.6607ZM22.8571 22L24.6786 22.5536L21.4464 10.8214L19.6607 10.2679L15.8036 19.8393L17.625 20.3929L18.4286 18.4286L22.1964 19.5893L22.8571 22ZM13.875 4.82143L24.1071 8.10714V1.32143L13.875 4.82143ZM19.4286 28.4464L22.25 28.6786L21.2857 31.5357L20.5714 30.3571C19.0238 31.3452 17.381 31.9881 15.6429 32.2857C14.9524 32.4286 14.4107 32.5 14.0179 32.5H12.5179C11.5774 32.5 10.3899 32.2679 8.95536 31.8036C7.52083 31.3393 6.42857 30.8333 5.67857 30.2857C5.58333 30.2024 5.53571 30.1071 5.53571 30C5.53571 29.9048 5.56548 29.8244 5.625 29.7589C5.68452 29.6935 5.76191 29.6607 5.85714 29.6607C5.90476 29.6607 6.01191 29.7054 6.17857 29.7946C6.34524 29.8839 6.52679 29.9821 6.72321 30.0893C6.91964 30.1964 7.04167 30.2619 7.08929 30.2857C7.95833 30.7262 8.90774 31.0923 9.9375 31.3839C10.9673 31.6756 11.9048 31.8214 12.75 31.8214C13.881 31.8214 14.875 31.7351 15.7321 31.5625C16.5893 31.3899 17.5238 31.0893 18.5357 30.6607C18.7143 30.5774 18.8958 30.4851 19.0804 30.3839C19.2649 30.2827 19.4673 30.1696 19.6875 30.0446C19.9077 29.9196 20.0774 29.8214 20.1964 29.75L19.4286 28.4464ZM27.4286 9.17857V28.4464L13.6071 24.0536C13.4405 24.125 11.2083 24.8839 6.91071 26.3304C2.6131 27.7768 0.422619 28.5 0.339286 28.5C0.184524 28.5 0.077381 28.4226 0.0178571 28.2679C0.0178571 28.256 0.0119048 28.2381 0 28.2143V8.96429C0.0357143 8.85714 0.0595238 8.79762 0.0714286 8.78572C0.130952 8.71429 0.25 8.64881 0.428571 8.58929C1.70238 8.16071 2.58929 7.8631 3.08929 7.69643V0.839286L13.0536 4.375C13.0774 4.375 14.0327 4.04762 15.9196 3.39286C17.8065 2.7381 19.6875 2.09226 21.5625 1.45536C23.4375 0.818452 24.3988 0.5 24.4464 0.5C24.6845 0.5 24.8036 0.625 24.8036 0.875V8.33929L27.4286 9.17857Z" fill="black"/>
</svg>
