<svg width="22" height="23" viewBox="0 0 22 23" fill="none" xmlns="http://www.w3.org/2000/svg">
<path d="M12.1203 2.54133V2.56311C12.1203 3.29291 12.6104 3.90289 13.2967 4.12074C16.401 5.09018 18.6558 7.9767 18.6558 11.397C18.6558 11.9634 18.5904 12.4971 18.4706 13.0199C18.3181 13.7171 18.6013 14.436 19.2222 14.8063L19.2331 14.8172C20.1698 15.3618 21.3898 14.8717 21.6403 13.826C21.8255 13.0417 21.9235 12.2248 21.9235 11.397C21.9235 6.49531 18.6776 2.33437 14.2116 0.972803C13.1768 0.65692 12.1203 1.45207 12.1203 2.54133ZM9.87641 18.9346C6.61954 18.4662 3.97266 15.8193 3.49339 12.5733C3.211 10.7677 3.58695 8.92068 4.55271 7.36908C5.51846 5.81747 7.00968 4.66463 8.75448 4.12074C9.4516 3.91379 9.94176 3.29291 9.94176 2.56311V2.54133C9.94176 1.45207 8.88519 0.65692 7.83951 0.972803C5.36044 1.73487 3.23376 3.35485 1.84057 5.54244C0.447376 7.73003 -0.121272 10.3423 0.236523 12.911C0.879182 17.6819 4.73514 21.5379 9.50606 22.1806C12.9263 22.638 16.0851 21.5161 18.3617 19.4247C19.1677 18.6841 19.0261 17.3661 18.0785 16.8214C17.4467 16.4511 16.6625 16.5709 16.1178 17.0611C14.5166 18.5207 12.2945 19.294 9.87641 18.9346Z" fill="url(#paint0_linear_726_1141)"/>
<defs>
<linearGradient id="paint0_linear_726_1141" x1="0.427284" y1="11.5924" x2="21.9235" y2="11.5924" gradientUnits="userSpaceOnUse">
<stop stop-color="#FF8200"/>
<stop offset="1" stop-color="#FF002B"/>
</linearGradient>
</defs>
</svg>
