<svg width="29" height="27" viewBox="0 0 29 27" fill="none" xmlns="http://www.w3.org/2000/svg">
<path d="M7.00065 0H20.334V17.3333L11.0007 26.6667L9.33398 25C9.17843 24.8444 9.05043 24.6333 8.94998 24.3667C8.84954 24.1 8.79976 23.8444 8.80065 23.6V23.1333L10.2673 17.3333H3.00065C2.28954 17.3333 1.66732 17.0667 1.13398 16.5333C0.600651 16 0.333984 15.3778 0.333984 14.6667V12C0.333984 11.8444 0.350429 11.6778 0.383318 11.5C0.416207 11.3222 0.466429 11.1556 0.533984 11L4.53398 1.6C4.73398 1.15556 5.06732 0.777778 5.53398 0.466667C6.00065 0.155555 6.48954 0 7.00065 0ZM23.0007 17.3333V0H28.334V17.3333H23.0007Z" fill="#FF002B"/>
</svg>
