<svg width="30" height="30" viewBox="0 0 30 30" fill="none" xmlns="http://www.w3.org/2000/svg">
<path fill-rule="evenodd" clip-rule="evenodd" d="M9.66732 0.333344C9.48937 0.333361 9.31323 0.368997 9.14927 0.438153C8.98531 0.507308 8.83686 0.608584 8.71265 0.73601L0.712651 8.94401C0.4699 9.19299 0.334019 9.52695 0.333984 9.87468V20.3333C0.33406 20.6869 0.474585 21.026 0.724651 21.276L8.72465 29.276C8.97464 29.5261 9.31372 29.6666 9.66732 29.6667H20.334C20.6876 29.6666 21.0267 29.5261 21.2767 29.276L29.2767 21.276C29.5267 21.026 29.6672 20.6869 29.6673 20.3333V9.87468C29.6673 9.52695 29.5314 9.19299 29.2887 8.94401L21.2887 0.73601C21.1644 0.608584 21.016 0.507308 20.852 0.438153C20.6881 0.368997 20.5119 0.333361 20.334 0.333344H9.66732ZM9.66732 13.6667C9.3137 13.6667 8.97456 13.8072 8.72451 14.0572C8.47446 14.3073 8.33398 14.6464 8.33398 15C8.33398 15.3536 8.47446 15.6928 8.72451 15.9428C8.97456 16.1929 9.3137 16.3333 9.66732 16.3333H20.334C20.6876 16.3333 21.0267 16.1929 21.2768 15.9428C21.5268 15.6928 21.6673 15.3536 21.6673 15C21.6673 14.6464 21.5268 14.3073 21.2768 14.0572C21.0267 13.8072 20.6876 13.6667 20.334 13.6667H9.66732Z" fill="#64748B"/>
</svg>
