<svg width="6" height="10" viewBox="0 0 6 10" fill="none" xmlns="http://www.w3.org/2000/svg">
<path d="M0.741886 8.23322L3.97522 4.99989L0.741886 1.76656C0.664734 1.6894 0.603535 1.59781 0.56178 1.49701C0.520026 1.39621 0.498535 1.28817 0.498535 1.17906C0.498535 1.06995 0.520026 0.961907 0.56178 0.861104C0.603535 0.7603 0.664734 0.668708 0.741886 0.591556C0.819037 0.514405 0.91063 0.453205 1.01143 0.41145C1.11224 0.369696 1.22028 0.348206 1.32939 0.348206C1.43849 0.348206 1.54653 0.369696 1.64734 0.41145C1.74814 0.453205 1.83973 0.514405 1.91689 0.591556L5.74189 4.41656C6.06689 4.74156 6.06689 5.26656 5.74189 5.59156L1.91689 9.41656C1.83979 9.49381 1.74822 9.5551 1.64741 9.59692C1.54659 9.63873 1.43853 9.66026 1.32939 9.66026C1.22025 9.66026 1.11218 9.63873 1.01137 9.59692C0.910554 9.5551 0.818981 9.49381 0.741886 9.41656C0.425219 9.09156 0.416886 8.55822 0.741886 8.23322Z" fill="#FFF7ED"/>
</svg>
