<svg width="25" height="25" viewBox="0 0 25 25" fill="none" xmlns="http://www.w3.org/2000/svg">
<path fill-rule="evenodd" clip-rule="evenodd" d="M20.9874 4.01331L4.19807 10.084L9.7914 13.3213L14.7234 8.38798C14.9736 8.13797 15.3128 7.99758 15.6665 7.99771C16.0202 7.99783 16.3594 8.13846 16.6094 8.38864C16.8594 8.63883 16.9998 8.97809 16.9997 9.33178C16.9995 9.68548 16.8589 10.0246 16.6087 10.2746L11.6754 15.208L14.9154 20.8L20.9874 4.01331ZM21.4181 1.02131C23.0114 0.443978 24.5554 1.98798 23.9781 3.58131L16.9354 23.0546C16.3567 24.652 14.1754 24.8466 13.3234 23.376L9.03407 15.9653L1.6234 11.676C0.152738 10.824 0.346072 8.64264 1.94474 8.06398L21.4181 1.02131Z" fill="white"/>
</svg>
