<svg width="12" height="22" viewBox="0 0 12 22" fill="none" xmlns="http://www.w3.org/2000/svg">
<path d="M0.920379 1.82785C0.822642 1.72443 0.746235 1.60276 0.695518 1.46981C0.644801 1.33685 0.620768 1.19521 0.624792 1.05296C0.628816 0.910718 0.660817 0.77066 0.718969 0.640783C0.777122 0.510907 0.860285 0.393756 0.963712 0.29602C1.06714 0.198284 1.1888 0.121876 1.32176 0.071159C1.45472 0.0204422 1.59636 -0.00359054 1.7386 0.000433335C1.88085 0.00445721 2.02091 0.0364587 2.15078 0.0946106C2.28066 0.152763 2.39781 0.235926 2.49555 0.339353L11.7039 10.0894C11.894 10.2905 12 10.5568 12 10.8336C12 11.1104 11.894 11.3767 11.7039 11.5779L2.49555 21.3289C2.39845 21.4346 2.28133 21.52 2.15098 21.58C2.02062 21.6401 1.87964 21.6736 1.73621 21.6787C1.59278 21.6838 1.44977 21.6603 1.31549 21.6097C1.1812 21.5591 1.05831 21.4822 0.953965 21.3837C0.849618 21.2852 0.765889 21.1669 0.707642 21.0357C0.649395 20.9046 0.617792 20.7631 0.614667 20.6196C0.611543 20.4762 0.636958 20.3335 0.689439 20.1999C0.74192 20.0663 0.82042 19.9445 0.920379 19.8415L9.42671 10.8336L0.920379 1.82785Z" fill="black"/>
</svg>
